# xmcd
#
# Track frame offsets: 
#        150
#        39982
#        64000
#        87187
#        130680
#        156172
#        201631
#        230783
#
# Disc length: 3408 seconds
#
# Revision: 0
# Processed by: cddbd v1.5.2PL0 Copyright (c) Steve Scherf et al.
# Submitted via: ExactAudioCopy v1.3
#
DISCID=6a0d4e08
DTITLE=Diamanda Galás - At Saint Thomas the Apostle Harlem
DYEAR=2017
DGENRE=Vocal
TTITLE0=Verrà la morte e avrà i tuoi occhi
TTITLE1=Άνοιξε Πέτρα
TTITLE2=Angels
TTITLE3=Die Stunde Kommt
TTITLE4=Fernand
TTITLE5=O Death
TTITLE6=Amsterdam
TTITLE7=Artemis
EXTD=
EXTT0=
EXTT1=
EXTT2=
EXTT3=
EXTT4=
EXTT5=
EXTT6=
EXTT7=
PLAYORDER=
